<?xml version="1.0" encoding="UTF-8" standalone="no"?>
<svg
   width="95"
   height="95"
   fill="none"
   version="1.1"
   id="svg54"
   sodipodi:docname="android.svg"
   inkscape:version="1.4 (86a8ad7, 2024-10-11)"
   xmlns:inkscape="http://www.inkscape.org/namespaces/inkscape"
   xmlns:sodipodi="http://sodipodi.sourceforge.net/DTD/sodipodi-0.dtd"
   xmlns="http://www.w3.org/2000/svg"
   xmlns:svg="http://www.w3.org/2000/svg">
  <sodipodi:namedview
     id="namedview54"
     pagecolor="#ffffff"
     bordercolor="#999999"
     borderopacity="1"
     inkscape:showpageshadow="2"
     inkscape:pageopacity="0"
     inkscape:pagecheckerboard="0"
     inkscape:deskcolor="#d1d1d1"
     inkscape:zoom="4"
     inkscape:cx="5.25"
     inkscape:cy="48.875"
     inkscape:window-width="1920"
     inkscape:window-height="991"
     inkscape:window-x="-9"
     inkscape:window-y="-9"
     inkscape:window-maximized="1"
     inkscape:current-layer="svg54" />
  <mask
     id="a"
     width="77"
     height="45"
     x="9"
     y="25"
     maskUnits="userSpaceOnUse"
     style="mask-type:alpha">
    <path
       fill="#34A853"
       d="M85.122 64.795a38.463 38.463 0 0 0-3.26-8.647 38.68 38.68 0 0 0-9.074-11.447 38.79 38.79 0 0 0-4.813-3.542c.016-.024.029-.05.044-.075.776-1.341 1.555-2.68 2.331-4.022l2.28-3.928 1.636-2.822a3.543 3.543 0 0 0-1.251-4.816 3.569 3.569 0 0 0-2.173-.478 3.535 3.535 0 0 0-2.698 1.743l-1.636 2.822-2.279 3.928c-.776 1.341-1.555 2.68-2.332 4.022l-.255.44c-.118-.046-.234-.093-.353-.138a38.633 38.633 0 0 0-13.786-2.525c-.133 0-.265 0-.398.002a38.652 38.652 0 0 0-12.338 2.14c-.449.156-.891.321-1.33.494l-.239-.411c-.776-1.341-1.555-2.68-2.331-4.022a136999.438 136999.438 0 0 0-3.916-6.75 3.534 3.534 0 0 0-3.364-1.748 3.517 3.517 0 0 0-1.506.484 3.526 3.526 0 0 0-1.61 2.13 3.542 3.542 0 0 0 .359 2.685l1.636 2.822 2.28 3.928c.776 1.341 1.554 2.68 2.331 4.022l.019.034a38.894 38.894 0 0 0-11.142 10.451 38.38 38.38 0 0 0-2.81 4.581 38.494 38.494 0 0 0-3.26 8.647c-.65 2.647 1.496 5.025 4.223 5.025H80.89c2.727 0 4.88-2.38 4.231-5.03Z"
       id="path1" />
  </mask>
  <g
     mask="url(#a)"
     id="g17"
     transform="matrix(1.2385037,0,0,1.2385037,-11.329447,-11.307936)">
    <path
       fill="url(#b)"
       d="M 86.42,23.578 H 4.227 V 69.823 H 86.42 Z"
       id="path2"
       style="fill:url(#b)" />
    <g
       filter="url(#c)"
       opacity="0.8"
       id="g3">
      <path
         fill="url(#d)"
         fill-opacity="0.4"
         d="M 50.316,38.42 C 58.463,44.166 35.534,44.796 26.677,57.354 17.82,69.912 24.919,91.722 16.773,85.977 11.743,79.079 10.978,65.086 19.835,52.528 28.692,39.971 43.407,35.845 50.316,38.42 Z"
         id="path3"
         style="fill:url(#d)" />
    </g>
    <g
       filter="url(#e)"
       opacity="0.7"
       id="g4">
      <path
         fill="url(#f)"
         fill-opacity="0.4"
         d="m 47.858,38.652 c -7.453,5.392 13.526,5.984 21.63,17.768 8.104,11.784 1.608,32.252 9.061,26.86 C 83.151,76.807 83.852,63.676 75.748,51.892 67.644,40.107 54.181,36.236 47.858,38.652 Z"
         id="path4"
         style="fill:url(#f)" />
    </g>
    <g
       filter="url(#g)"
       opacity="0.6"
       id="g5">
      <path
         fill="#8bd8a0"
         d="M 7.96,58.972 C 4.83,68.816 3.22,77.09 4.361,77.452 5.503,77.816 8.965,70.13 12.094,60.286 15.224,50.442 28.131,39.708 26.99,39.346 25.848,38.982 11.09,49.128 7.96,58.972 Z"
         id="path5" />
    </g>
    <g
       filter="url(#h)"
       opacity="0.5"
       id="g6">
      <path
         fill="#8bd8a0"
         d="m 86.587,58.972 c 3.13,9.844 4.74,18.118 3.6,18.48 -1.143,0.364 -4.605,-7.322 -7.734,-17.166 -3.13,-9.844 -16.037,-20.578 -14.895,-20.94 1.141,-0.364 15.9,9.782 19.029,19.626 z"
         id="path6" />
    </g>
    <g
       filter="url(#i)"
       opacity="0.1"
       id="g7">
      <path
         fill="#202124"
         d="m 28.66,41.056 c 0.37,-0.242 -1.586,-3.891 -4.37,-8.15 -2.785,-4.26 -5.343,-7.516 -5.713,-7.274 -0.37,0.242 1.587,3.891 4.371,8.15 2.785,4.26 5.342,7.516 5.713,7.274 z"
         id="path7" />
    </g>
    <g
       filter="url(#j)"
       opacity="0.3"
       id="g8">
      <path
         fill="#ffffff"
         d="m 27.507,30.127 c 3.242,5.324 4.823,7.764 5.183,7.544 0.36,-0.219 -0.637,-3.014 -3.88,-8.338 -3.124,-7.111 -8.762,-2.87 -8.205,-2.093 1.083,2.085 2.757,-4.578 6.902,2.887 z"
         id="path8" />
    </g>
    <path
       fill="url(#k)"
       fill-opacity="0.9"
       d="m 18.478,28.284 c 0.585,2.02 2.987,3.1 5.364,2.412 2.378,-0.688 3.831,-2.884 3.246,-4.905 -0.585,-2.02 -2.986,-3.1 -5.364,-2.412 -2.377,0.688 -3.83,2.884 -3.246,4.904 z"
       opacity="0.15"
       id="path9"
       style="fill:url(#k)" />
    <path
       fill="url(#l)"
       fill-opacity="0.9"
       d="m 67.644,28.508 c 0.585,2.02 2.987,3.1 5.364,2.413 2.378,-0.688 3.831,-2.884 3.246,-4.905 -0.585,-2.02 -2.986,-3.1 -5.364,-2.412 -2.377,0.688 -3.83,2.884 -3.246,4.904 z"
       opacity="0.15"
       id="path10"
       style="fill:url(#l)" />
    <g
       filter="url(#m)"
       opacity="0.1"
       id="g11">
      <path
         fill="#202124"
         d="m 66.116,41.32 c -0.374,-0.236 1.524,-3.917 4.24,-8.22 2.715,-4.304 5.22,-7.601 5.594,-7.365 0.374,0.236 -1.524,3.916 -4.24,8.22 -2.715,4.303 -5.22,7.6 -5.594,7.365 z"
         id="path11" />
    </g>
    <mask
       id="n"
       width="14"
       height="9"
       x="60"
       y="33"
       maskUnits="userSpaceOnUse">
      <path
         fill="#000000"
         d="M 68.333,41.39 C 66.509,40.252 62.345,38.3 60.49,37.465 l 1.226,-4.336 11.974,4.818 c -1.026,1.621 -3.533,4.58 -5.357,3.443 z"
         id="path12" />
    </mask>
    <g
       filter="url(#o)"
       mask="url(#n)"
       opacity="0.3"
       style="mix-blend-mode:screen"
       id="g13">
      <path
         fill="#81c995"
         d="m 62.868,38.127 c -0.91,-0.447 -1.717,-0.665 -1.804,-0.487 -0.087,0.177 0.594,0.558 1.503,1.004 0.909,0.447 1.701,0.79 1.788,0.613 0.087,-0.177 -0.579,-0.683 -1.487,-1.13 z"
         id="path13" />
    </g>
    <mask
       id="p"
       width="15"
       height="10"
       x="20"
       y="33"
       maskUnits="userSpaceOnUse">
      <path
         fill="#000000"
         d="m 26.241,41.743 c 1.8,-1.175 5.924,-3.213 7.76,-4.085 l -1.314,-4.31 -11.872,5.063 c 1.058,1.6 3.626,4.507 5.426,3.332 z"
         id="path14" />
    </mask>
    <g
       filter="url(#q)"
       mask="url(#p)"
       opacity="0.3"
       style="mix-blend-mode:screen"
       id="g15">
      <path
         fill="#81c995"
         d="m 31.637,38.373 c 0.899,-0.465 1.702,-0.7 1.793,-0.524 0.09,0.176 -0.583,0.57 -1.482,1.036 -0.9,0.465 -1.685,0.825 -1.776,0.649 -0.09,-0.176 0.565,-0.695 1.465,-1.16 z"
         id="path15" />
    </g>
    <g
       filter="url(#r)"
       opacity="0.3"
       id="g16">
      <path
         fill="#ffffff"
         d="m 67.451,30.41 c -3.032,5.252 -4.52,7.657 -4.903,7.436 -0.383,-0.221 0.484,-2.985 3.516,-8.237 3.456,-9.124 10.306,-7.918 9.182,-2.931 -0.886,2.05 -3.956,-3.634 -7.795,3.732 z"
         id="path16" />
    </g>
  </g>
  <path
     fill="url(#s)"
     fill-opacity="0.7"
     d="m 27.975705,57.796853 c 0.577143,-0.65393 0.09041,-2.042293 -1.087406,-3.101214 -1.176579,-1.05892 -2.600858,-1.387124 -3.176762,-0.733194 -0.577143,0.652692 -0.09041,2.041054 1.087406,3.099975 1.176578,1.058921 2.600858,1.387124 3.178,0.734433 z"
     id="path17"
     style="fill:url(#s);stroke-width:1.2385" />
  <path
     fill="url(#t)"
     fill-opacity="0.7"
     d="m 68.446289,56.124873 c 1.177817,-1.058921 1.664549,-2.447284 1.087406,-3.099975 -0.577143,-0.65393 -1.998945,-0.325726 -3.176762,0.733194 -1.177817,1.058921 -1.664549,2.447283 -1.087406,3.099975 0.577143,0.65393 1.998945,0.325726 3.176762,-0.733194 z"
     id="path18"
     style="fill:url(#t);stroke-width:1.2385" />
  <path
     fill="#011b04"
     d="m 28.752247,61.140813 c 1.427994,-3.566891 -0.07183,-5.763997 -0.999473,-6.448889 -2.677645,-3.312997 -6.284167,-0.755487 -7.354235,0.684892 -1.071305,1.404464 -2.641728,3.926057 -1.107222,7.383959 1.535745,3.459141 7.676246,2.846082 9.46093,-1.619962 z m 37.018874,0.07926 c -1.427995,-3.529736 0.07183,-5.762758 0.999472,-6.411734 2.677645,-3.314235 6.282929,-0.755487 7.354235,0.684893 1.071306,1.404463 2.641728,3.926056 1.107222,7.348042 -1.535744,3.421986 -7.675007,2.846081 -9.460929,-1.585285 z"
     opacity="0.09"
     id="path19"
     style="stroke-width:1.2385" />
  <path
     fill="#202124"
     d="m 73.842449,63.661167 c 2.213206,-1.476296 2.569895,-4.89952 0.785212,-7.600696 -1.784684,-2.701177 -5.033279,-3.674641 -7.247724,-2.197106 -2.213206,1.476296 -2.569895,4.898282 -0.785211,7.600697 1.784684,2.701176 5.034517,3.67464 7.247723,2.197105 z"
     id="path20"
     style="stroke-width:1.2385" />
  <path
     fill="#000000"
     d="m 27.898918,61.35012 c 1.784683,-2.701177 1.463911,-6.051329 -0.714617,-7.527626 -2.177289,-1.441618 -5.354051,-0.433476 -7.139974,2.233022 -1.783445,2.701177 -1.462672,6.051329 0.714617,7.528864 2.177289,1.44038 5.35529,0.432238 7.139974,-2.23426 z m 38.700762,0.04459 c -1.784684,-2.702415 -1.463911,-6.052568 0.714616,-7.530102 2.17729,-1.44038 5.35529,-0.431 7.139974,2.23426 1.784684,2.701177 1.463911,6.051329 -0.714617,7.528864 -2.177289,1.44038 -5.354051,0.432238 -7.139973,-2.233022 z"
     id="path21"
     style="stroke-width:1.2385" />
  <path
     fill="url(#u)"
     d="m 28.5256,56.079048 c -1.027958,-2.895621 -3.438086,-2.926584 -4.514345,-2.593427 0.911538,-0.532556 2.673929,-0.178344 3.511157,0.600675 0.640307,0.619252 0.961079,1.600146 1.042821,2.026192 l -0.03963,-0.0322 z"
     opacity="0.8"
     id="path22"
     style="fill:url(#u);stroke-width:1.2385" />
  <path
     fill="url(#v)"
     d="m 69.387552,53.723414 c -2.535217,0.143667 -3.356345,2.161189 -3.462857,3.133414 0.250178,-0.61182 1.177817,-1.872617 2.784157,-2.197105 1.606339,-0.287333 3.713034,1.549368 4.570078,2.521593 l 0.785211,-0.900392 c -0.499117,-0.936309 -2.142611,-2.737093 -4.676589,-2.55751 z"
     id="path23"
     style="fill:url(#v);stroke-width:1.2385" />
  <path
     fill="#000000"
     d="m 73.810248,55.810293 c 1.714089,2.089355 1.892434,4.575032 1.678173,5.620329 0.428522,-2.053439 0.284855,-4.035045 -1.3574,-6.052567 -0.891723,-1.115892 -2.283801,-1.728951 -3.283274,-2.017522 -0.143666,-0.03592 -0.322011,-0.07183 -0.428522,-0.10775 a 2.3890736,2.3890736 0 0 0 -0.606867,-0.10775 c 0.178345,0.03715 0.392606,0.07183 0.606867,0.10775 0.142428,0 0.284856,0.07183 0.428522,0.10775 0.713378,0.252654 1.676934,0.792642 2.997179,2.44976 z"
     id="path24"
     style="stroke-width:1.2385" />
  <path
     fill="#e2dce1"
     d="m 22.925087,54.959441 c -1.000711,0.215499 -1.750006,1.260796 -1.964267,1.764867 l 0.500356,0.755488 c 0,0 0.356689,-0.611821 0.749294,-1.008142 0.392606,-0.396321 0.999473,-0.827321 1.24965,-1.008142 l -0.500355,-0.504071 z m 48.670717,0.02353 c 0.964794,0.180822 1.714089,1.188964 1.964266,1.693035 l -0.500355,0.720809 c 0,0 -0.356689,-0.575904 -0.749295,-0.972225 -0.392605,-0.396322 -0.964794,-0.792643 -1.213733,-0.972226 z"
     opacity="0.8"
     id="path25"
     style="stroke-width:1.2385" />
  <g
     fill="#e2dce1"
     opacity="0.8"
     id="g26"
     transform="matrix(1.2385037,0,0,1.2385037,-11.329447,-11.307936)">
    <path
       d="m 30.947,57.86 c -0.375,0.203 -0.98,0.494 -1.24,0.61 l -0.23,0.698 a 3.781,3.781 0 0 0 1.21,-0.698 z m 1.207,-3.058 a 4.56,4.56 0 0 0 -0.23,-0.61 v 0.261 c 0.115,0.204 0.202,0.582 0.23,0.756 0,-0.058 0.058,-0.232 0,-0.436 v 0.03 z"
       id="path26" />
  </g>
  <g
     fill="#e2dce1"
     opacity="0.8"
     id="g27"
     transform="matrix(1.2385037,0,0,1.2385037,-11.329447,-11.307936)">
    <path
       d="m 63.588,57.922 c 0.375,0.204 0.98,0.494 1.24,0.61 l 0.23,0.699 a 3.782,3.782 0 0 1 -1.21,-0.698 z m -1.185,-3.057 a 4.56,4.56 0 0 1 0.23,-0.611 v 0.262 c -0.115,0.203 -0.202,0.581 -0.23,0.756 0,-0.058 -0.058,-0.233 0,-0.436 z"
       id="path27" />
  </g>
  <defs
     id="defs54">
    <filter
       id="c"
       width="46.977"
       height="57.232"
       x="9.061"
       y="33.69"
       color-interpolation-filters="sRGB"
       filterUnits="userSpaceOnUse">
      <feFlood
         flood-opacity="0"
         result="BackgroundImageFix"
         id="feFlood27" />
      <feBlend
         in="SourceGraphic"
         in2="BackgroundImageFix"
         result="shape"
         id="feBlend27" />
      <feGaussianBlur
         result="effect1_foregroundBlur_13608_80025"
         stdDeviation="2"
         id="feGaussianBlur27" />
    </filter>
    <filter
       id="e"
       width="43.664"
       height="54.199"
       x="42.283"
       y="33.967"
       color-interpolation-filters="sRGB"
       filterUnits="userSpaceOnUse">
      <feFlood
         flood-opacity="0"
         result="BackgroundImageFix"
         id="feFlood28" />
      <feBlend
         in="SourceGraphic"
         in2="BackgroundImageFix"
         result="shape"
         id="feBlend28" />
      <feGaussianBlur
         result="effect1_foregroundBlur_13608_80025"
         stdDeviation="2"
         id="feGaussianBlur28" />
    </filter>
    <filter
       id="g"
       width="60.699"
       height="75.762"
       x="-14.822"
       y="20.52"
       color-interpolation-filters="sRGB"
       filterUnits="userSpaceOnUse">
      <feFlood
         flood-opacity="0"
         result="BackgroundImageFix"
         id="feFlood29" />
      <feBlend
         in="SourceGraphic"
         in2="BackgroundImageFix"
         result="shape"
         id="feBlend29" />
      <feGaussianBlur
         result="effect1_foregroundBlur_13608_80025"
         stdDeviation="9.408"
         id="feGaussianBlur29" />
    </filter>
    <filter
       id="h"
       width="60.699"
       height="75.762"
       x="48.67"
       y="20.52"
       color-interpolation-filters="sRGB"
       filterUnits="userSpaceOnUse">
      <feFlood
         flood-opacity="0"
         result="BackgroundImageFix"
         id="feFlood30" />
      <feBlend
         in="SourceGraphic"
         in2="BackgroundImageFix"
         result="shape"
         id="feBlend30" />
      <feGaussianBlur
         result="effect1_foregroundBlur_13608_80025"
         stdDeviation="9.408"
         id="feGaussianBlur30" />
    </filter>
    <filter
       id="i"
       width="14.174"
       height="19.449"
       x="16.531"
       y="23.619"
       color-interpolation-filters="sRGB"
       filterUnits="userSpaceOnUse">
      <feFlood
         flood-opacity="0"
         result="BackgroundImageFix"
         id="feFlood31" />
      <feBlend
         in="SourceGraphic"
         in2="BackgroundImageFix"
         result="shape"
         id="feBlend31" />
      <feGaussianBlur
         result="effect1_foregroundBlur_13608_80025"
         stdDeviation="1"
         id="feGaussianBlur31" />
    </filter>
    <filter
       id="j"
       width="49.826"
       height="50.041"
       x="1.75"
       y="6.461"
       color-interpolation-filters="sRGB"
       filterUnits="userSpaceOnUse">
      <feFlood
         flood-opacity="0"
         result="BackgroundImageFix"
         id="feFlood32" />
      <feBlend
         in="SourceGraphic"
         in2="BackgroundImageFix"
         result="shape"
         id="feBlend32" />
      <feGaussianBlur
         result="effect1_foregroundBlur_13608_80025"
         stdDeviation="9.408"
         id="feGaussianBlur32" />
    </filter>
    <filter
       id="m"
       width="13.928"
       height="19.609"
       x="64.068"
       y="23.723"
       color-interpolation-filters="sRGB"
       filterUnits="userSpaceOnUse">
      <feFlood
         flood-opacity="0"
         result="BackgroundImageFix"
         id="feFlood33" />
      <feBlend
         in="SourceGraphic"
         in2="BackgroundImageFix"
         result="shape"
         id="feBlend33" />
      <feGaussianBlur
         result="effect1_foregroundBlur_13608_80025"
         stdDeviation="1"
         id="feGaussianBlur33" />
    </filter>
    <filter
       id="o"
       width="7.307"
       height="5.727"
       x="59.057"
       y="35.578"
       color-interpolation-filters="sRGB"
       filterUnits="userSpaceOnUse">
      <feFlood
         flood-opacity="0"
         result="BackgroundImageFix"
         id="feFlood34" />
      <feBlend
         in="SourceGraphic"
         in2="BackgroundImageFix"
         result="shape"
         id="feBlend34" />
      <feGaussianBlur
         result="effect1_foregroundBlur_13608_80025"
         stdDeviation="1"
         id="feGaussianBlur34" />
    </filter>
    <filter
       id="q"
       width="7.273"
       height="5.789"
       x="28.164"
       y="35.791"
       color-interpolation-filters="sRGB"
       filterUnits="userSpaceOnUse">
      <feFlood
         flood-opacity="0"
         result="BackgroundImageFix"
         id="feFlood35" />
      <feBlend
         in="SourceGraphic"
         in2="BackgroundImageFix"
         result="shape"
         id="feBlend35" />
      <feGaussianBlur
         result="effect1_foregroundBlur_13608_80025"
         stdDeviation="1"
         id="feGaussianBlur35" />
    </filter>
    <filter
       id="r"
       width="28.906"
       height="31.027"
       x="54.463"
       y="14.832"
       color-interpolation-filters="sRGB"
       filterUnits="userSpaceOnUse">
      <feFlood
         flood-opacity="0"
         result="BackgroundImageFix"
         id="feFlood36" />
      <feBlend
         in="SourceGraphic"
         in2="BackgroundImageFix"
         result="shape"
         id="feBlend36" />
      <feGaussianBlur
         result="effect1_foregroundBlur_13608_80025"
         stdDeviation="4"
         id="feGaussianBlur36" />
    </filter>
    <radialGradient
       id="b"
       cx="0"
       cy="0"
       r="1"
       gradientTransform="matrix(-0.81039363,34.85268,-55.328545,-1.2864979,47.092957,55.799319)"
       gradientUnits="userSpaceOnUse">
      <stop
         offset=".307"
         stop-color="#4FAF53"
         id="stop36" />
      <stop
         offset="1"
         stop-color="#118016"
         id="stop37" />
      <stop
         offset="1"
         stop-color="#4FAF53"
         stop-opacity="0"
         id="stop38" />
    </radialGradient>
    <radialGradient
       id="k"
       cx="0"
       cy="0"
       r="1"
       gradientTransform="matrix(-2.6989995,0.80768524,-0.5852927,-1.955842,22.782899,27.038151)"
       gradientUnits="userSpaceOnUse">
      <stop
         stop-color="#fff"
         id="stop39" />
      <stop
         offset=".948"
         stop-color="#fff"
         stop-opacity="0"
         id="stop40" />
    </radialGradient>
    <radialGradient
       id="l"
       cx="0"
       cy="0"
       r="1"
       gradientTransform="matrix(-2.699,0.80769,-0.5853,-1.95584,71.95,27.262)"
       gradientUnits="userSpaceOnUse">
      <stop
         stop-color="#fff"
         id="stop41" />
      <stop
         offset=".948"
         stop-color="#fff"
         stop-opacity="0"
         id="stop42" />
    </radialGradient>
    <radialGradient
       id="s"
       cx="0"
       cy="0"
       r="1"
       gradientTransform="matrix(-0.8377239,0.89920323,-1.6368065,-1.5248953,28.265516,56.289596)"
       gradientUnits="userSpaceOnUse">
      <stop
         stop-color="#93E19F"
         id="stop43" />
      <stop
         offset="1"
         stop-color="#93E19F"
         stop-opacity="0"
         id="stop44" />
    </radialGradient>
    <radialGradient
       id="t"
       cx="0"
       cy="0"
       r="1"
       gradientTransform="matrix(0.83699319,0.89841058,-1.6360138,1.5241646,67.95956,54.812061)"
       gradientUnits="userSpaceOnUse">
      <stop
         stop-color="#93E19F"
         id="stop45" />
      <stop
         offset="1"
         stop-color="#93E19F"
         stop-opacity="0"
         id="stop46" />
    </radialGradient>
    <linearGradient
       id="d"
       x1="19.398"
       x2="30.779"
       y1="52.22"
       y2="60.247"
       gradientUnits="userSpaceOnUse">
      <stop
         stop-color="#A8F0B9"
         id="stop47" />
      <stop
         offset="1"
         stop-color="#ADEEBC"
         stop-opacity="0"
         id="stop48" />
    </linearGradient>
    <linearGradient
       id="f"
       x1="74.868"
       x2="65.599"
       y1="53.06"
       y2="58.921"
       gradientUnits="userSpaceOnUse">
      <stop
         stop-color="#A8F0B9"
         id="stop49" />
      <stop
         offset="1"
         stop-color="#ADEEBC"
         stop-opacity="0"
         id="stop50" />
    </linearGradient>
    <linearGradient
       id="u"
       x1="30.031"
       x2="30.54"
       y1="51.131"
       y2="54.499"
       gradientUnits="userSpaceOnUse"
       gradientTransform="matrix(1.2385037,0,0,1.2385037,-11.329447,-11.307936)">
      <stop
         stop-color="#E2DDE2"
         id="stop51" />
      <stop
         offset="1"
         stop-color="#E2DDE2"
         stop-opacity="0"
         id="stop52" />
    </linearGradient>
    <linearGradient
       id="v"
       x1="65.663"
       x2="65.663"
       y1="52.508"
       y2="55.3"
       gradientUnits="userSpaceOnUse"
       gradientTransform="matrix(1.2385037,0,0,1.2385037,-11.329447,-11.307936)">
      <stop
         stop-color="#373637"
         id="stop53" />
      <stop
         offset="1"
         stop-color="#373637"
         stop-opacity="0"
         id="stop54" />
    </linearGradient>
  </defs>
</svg>
